<?xml version="1.0" encoding="UTF-8"?>
<!DOCTYPE svg PUBLIC "-//W3C//DTD SVG 1.1//EN" "http://www.w3.org/Graphics/SVG/1.1/DTD/svg11.dtd">
<svg xmlns="http://www.w3.org/2000/svg" version="1.1" width="370px" height="42px" style="shape-rendering:geometricPrecision; text-rendering:geometricPrecision; image-rendering:optimizeQuality; fill-rule:evenodd; clip-rule:evenodd" xmlns:xlink="http://www.w3.org/1999/xlink">
<g><path style="opacity:0.854" fill="#000" d="M 7.5,-0.5 C 9.16667,-0.5 10.8333,-0.5 12.5,-0.5C 12.5,0.833333 12.5,2.16667 12.5,3.5C 13.5,3.5 14.5,3.5 15.5,3.5C 15.5,2.16667 15.5,0.833333 15.5,-0.5C 17.1667,-0.5 18.8333,-0.5 20.5,-0.5C 20.5,0.833333 20.5,2.16667 20.5,3.5C 22.1667,3.5 23.8333,3.5 25.5,3.5C 25.5,6.16667 25.5,8.83333 25.5,11.5C 26.8333,11.5 28.1667,11.5 29.5,11.5C 29.5,14.5 29.5,17.5 29.5,20.5C 27.8333,20.5 26.1667,20.5 24.5,20.5C 24.5,19.1667 24.5,17.8333 24.5,16.5C 23.1667,16.5 21.8333,16.5 20.5,16.5C 20.5,17.8333 20.5,19.1667 20.5,20.5C 18.8333,20.5 17.1667,20.5 15.5,20.5C 15.5,19.1667 15.5,17.8333 15.5,16.5C 14.5,16.5 13.5,16.5 12.5,16.5C 12.5,17.8333 12.5,19.1667 12.5,20.5C 10.8333,20.5 9.16667,20.5 7.5,20.5C 7.5,19.1667 7.5,17.8333 7.5,16.5C 6.5,16.5 5.5,16.5 4.5,16.5C 4.5,17.8333 4.5,19.1667 4.5,20.5C 2.83333,20.5 1.16667,20.5 -0.5,20.5C -0.5,17.5 -0.5,14.5 -0.5,11.5C 0.833333,11.5 2.16667,11.5 3.5,11.5C 3.5,8.83333 3.5,6.16667 3.5,3.5C 4.83333,3.5 6.16667,3.5 7.5,3.5C 7.5,2.16667 7.5,0.833333 7.5,-0.5 Z M 8.5,8.5 C 9.5,8.5 10.5,8.5 11.5,8.5C 11.5,9.5 11.5,10.5 11.5,11.5C 10.5,11.5 9.5,11.5 8.5,11.5C 8.5,10.5 8.5,9.5 8.5,8.5 Z M 16.5,8.5 C 17.5,8.5 18.5,8.5 19.5,8.5C 19.5,9.5 19.5,10.5 19.5,11.5C 18.5,11.5 17.5,11.5 16.5,11.5C 16.5,10.5 16.5,9.5 16.5,8.5 Z"/></g>
<g><path style="opacity:0.763" fill="#000" d="M 78.5,1.5 C 82.1817,1.3347 85.8484,1.50137 89.5,2C 91.9095,3.20069 93.9095,4.86735 95.5,7C 94.3349,8.08359 93.0016,8.91692 91.5,9.5C 82.304,3.67074 76.6374,6.00407 74.5,16.5C 75.0684,22.2365 78.2351,25.5698 84,26.5C 93.0308,22.7588 92.5308,21.0921 82.5,21.5C 82.5,20.1667 82.5,18.8333 82.5,17.5C 86.7675,17.203 90.9341,17.5363 95,18.5C 96.7781,24.1094 94.9448,27.9427 89.5,30C 71.6887,31.232 65.8554,23.3987 72,6.5C 73.9651,4.44965 76.1318,2.78299 78.5,1.5 Z"/></g>
<g><path style="opacity:0.752" fill="#000" d="M 184.5,1.5 C 188.182,1.3347 191.848,1.50137 195.5,2C 197.666,3.00241 199.333,4.50241 200.5,6.5C 200.167,8.16667 199.167,9.16667 197.5,9.5C 188.614,3.85342 182.614,6.02009 179.5,16C 180.667,21.8333 184.167,25.3333 190,26.5C 192.902,25.1203 195.736,23.9536 198.5,23C 199.574,23.7387 200.241,24.7387 200.5,26C 199.142,27.6887 197.475,29.022 195.5,30C 180.206,32.0396 173.706,25.5396 176,10.5C 177.688,6.31481 180.521,3.31481 184.5,1.5 Z"/></g>
<g><path style="opacity:0.778" fill="#000" d="M 250.5,1.5 C 253.518,1.33537 256.518,1.50204 259.5,2C 260.647,3.90356 260.147,5.40356 258,6.5C 256.467,5.30466 254.967,5.30466 253.5,6.5C 252.534,8.39605 252.201,10.396 252.5,12.5C 253.833,12.5 255.167,12.5 256.5,12.5C 256.5,13.8333 256.5,15.1667 256.5,16.5C 255.167,16.5 253.833,16.5 252.5,16.5C 252.5,21.1667 252.5,25.8333 252.5,30.5C 250.833,30.5 249.167,30.5 247.5,30.5C 247.5,25.8333 247.5,21.1667 247.5,16.5C 246.5,16.5 245.5,16.5 244.5,16.5C 244.5,15.1667 244.5,13.8333 244.5,12.5C 245.5,12.5 246.5,12.5 247.5,12.5C 246.807,8.24733 247.807,4.58066 250.5,1.5 Z"/></g>
<g><path style="opacity:0.846" fill="#000" d="M 49.5,41.5 C 34.1667,41.5 18.8333,41.5 3.5,41.5C 3.5,35.8333 3.5,30.1667 3.5,24.5C 5.16667,24.5 6.83333,24.5 8.5,24.5C 8.5,28.5 8.5,32.5 8.5,36.5C 20.5,36.5 32.5,36.5 44.5,36.5C 44.5,27.1667 44.5,17.8333 44.5,8.5C 39.1667,8.5 33.8333,8.5 28.5,8.5C 28.5,6.83333 28.5,5.16667 28.5,3.5C 35.5,3.5 42.5,3.5 49.5,3.5C 49.5,16.1667 49.5,28.8333 49.5,41.5 Z"/></g>
<g><path style="opacity:0.751" fill="#000" d="M 120.5,11.5 C 128.746,11.9884 132.246,16.3218 131,24.5C 128.185,30.1691 123.685,32.0024 117.5,30C 115.333,29.1667 113.833,27.6667 113,25.5C 111.101,18.2907 113.601,13.624 120.5,11.5 Z M 120.5,16.5 C 124.017,16.3511 126.017,18.0178 126.5,21.5C 125.172,26.4961 122.505,27.4961 118.5,24.5C 116.778,21.0822 117.444,18.4155 120.5,16.5 Z"/></g>
<g><path style="opacity:0.768" fill="#000" d="M 211.5,11.5 C 220.632,12.7884 223.799,17.7884 221,26.5C 217.604,30.2027 213.437,31.3694 208.5,30C 206.333,29.1667 204.833,27.6667 204,25.5C 201.684,18.0327 204.184,13.3661 211.5,11.5 Z M 210.5,16.5 C 215.325,16.4881 217.491,18.8214 217,23.5C 212.955,27.5771 209.789,26.9105 207.5,21.5C 208.26,19.6396 209.26,17.973 210.5,16.5 Z"/></g>
<g><path style="opacity:0.765" fill="#000" d="M 233.5,11.5 C 236.6,11.8037 239.1,13.137 241,15.5C 242.325,20.4012 242.825,25.4012 242.5,30.5C 240.833,30.5 239.167,30.5 237.5,30.5C 237.666,26.4862 237.499,22.4862 237,18.5C 235.135,16.3268 232.969,15.9934 230.5,17.5C 229.508,21.7828 229.174,26.1161 229.5,30.5C 227.833,30.5 226.167,30.5 224.5,30.5C 224.5,24.5 224.5,18.5 224.5,12.5C 226.144,12.2865 227.644,12.6198 229,13.5C 230.622,12.9011 232.122,12.2344 233.5,11.5 Z"/></g>
<g><path style="opacity:0.756" fill="#000" d="M 266.5,11.5 C 273.946,12.0919 276.946,15.9252 275.5,23C 271.5,23.3333 267.5,23.6667 263.5,24C 264.893,25.3631 266.559,26.1964 268.5,26.5C 270.51,25.6379 272.51,25.1379 274.5,25C 275.5,27.0907 274.833,28.7574 272.5,30C 260.426,31.9278 256.259,27.0945 260,15.5C 261.792,13.372 263.958,12.0387 266.5,11.5 Z M 265.5,16.5 C 268.022,16.1281 270.022,16.9614 271.5,19C 268.833,19.6667 266.167,19.6667 263.5,19C 264.381,18.2917 265.047,17.4584 265.5,16.5 Z"/></g>
<g><path style="opacity:0.756" fill="#000" d="M 301.5,11.5 C 308.946,12.0919 311.946,15.9252 310.5,23C 306.789,23.1747 303.122,23.6747 299.5,24.5C 300.559,25.6964 301.893,26.363 303.5,26.5C 305.51,25.6379 307.51,25.1379 309.5,25C 310.5,27.0907 309.833,28.7574 307.5,30C 295.426,31.9278 291.259,27.0945 295,15.5C 297.013,13.7518 299.18,12.4185 301.5,11.5 Z M 300.5,16.5 C 303.022,16.1281 305.022,16.9614 306.5,19C 303.833,19.6667 301.167,19.6667 298.5,19C 299.381,18.2917 300.047,17.4584 300.5,16.5 Z"/></g>
<g><path style="opacity:0.754" fill="#000" d="M 322.5,11.5 C 325.892,11.7173 328.725,13.0507 331,15.5C 331.499,20.4889 331.666,25.4889 331.5,30.5C 329.856,30.7135 328.356,30.3802 327,29.5C 326.667,25.5 326.333,21.5 326,17.5C 323.408,16.0183 321.075,16.3517 319,18.5C 318.501,22.4862 318.334,26.4862 318.5,30.5C 316.833,30.5 315.167,30.5 313.5,30.5C 313.5,24.5 313.5,18.5 313.5,12.5C 315.467,12.2606 317.301,12.5939 319,13.5C 320.302,12.9152 321.469,12.2485 322.5,11.5 Z"/></g>
<g><path style="opacity:0.736" fill="#000" d="M 342.5,11.5 C 345.835,11.6528 348.502,12.9861 350.5,15.5C 349.855,16.646 349.022,17.646 348,18.5C 343.516,15.2467 340.35,16.2467 338.5,21.5C 339.032,23.7411 340.365,25.2411 342.5,26C 344.655,26.116 346.655,25.7827 348.5,25C 351.249,27.19 350.915,28.8567 347.5,30C 336.831,31.6618 332.664,27.1618 335,16.5C 336.913,13.7197 339.413,12.053 342.5,11.5 Z"/></g>
<g><path style="opacity:0.746" fill="#000" d="M 369.5,16.5 C 369.5,18.5 369.5,20.5 369.5,22.5C 365.585,23.2668 361.585,23.7668 357.5,24C 358.459,25.4638 359.792,26.2972 361.5,26.5C 363.762,25.5331 366.095,24.8664 368.5,24.5C 369.035,27.2385 368.035,29.0718 365.5,30C 353.261,31.093 349.428,25.9263 354,14.5C 359.85,10.4039 365.016,11.0706 369.5,16.5 Z M 359.5,16.5 C 361.681,16.2837 363.347,17.117 364.5,19C 362.098,19.8141 359.765,19.6474 357.5,18.5C 358.243,17.8182 358.909,17.1515 359.5,16.5 Z"/></g>
<g><path style="opacity:0.755" fill="#000" d="M 97.5,12.5 C 100.802,13.1539 103.969,13.1539 107,12.5C 112.194,12.8791 112.694,14.5458 108.5,17.5C 106.356,16.0465 104.523,16.3799 103,18.5C 102.501,22.4862 102.334,26.4862 102.5,30.5C 100.833,30.5 99.1667,30.5 97.5,30.5C 97.5,24.5 97.5,18.5 97.5,12.5 Z"/></g>
<g><path style="opacity:0.755" fill="#000" d="M 133.5,12.5 C 135.167,12.5 136.833,12.5 138.5,12.5C 138.334,16.5138 138.501,20.5138 139,24.5C 141.244,26.9938 143.577,26.9938 146,24.5C 146.499,20.5138 146.666,16.5138 146.5,12.5C 148.167,12.5 149.833,12.5 151.5,12.5C 151.5,18.5 151.5,24.5 151.5,30.5C 146.202,30.6416 140.869,30.1416 135.5,29C 134.874,28.2496 134.374,27.4162 134,26.5C 133.501,21.8452 133.334,17.1785 133.5,12.5 Z"/></g>
<g><path style="opacity:0.776" fill="#000" d="M 154.5,12.5 C 159.179,12.3342 163.845,12.5008 168.5,13C 172.714,17.2002 173.548,22.0336 171,27.5C 167.673,30.1539 163.839,31.1539 159.5,30.5C 159.5,33.8333 159.5,37.1667 159.5,40.5C 157.833,40.5 156.167,40.5 154.5,40.5C 154.5,31.1667 154.5,21.8333 154.5,12.5 Z M 161.5,16.5 C 166.989,16.504 168.822,19.1707 167,24.5C 162.742,27.6938 160.242,26.6938 159.5,21.5C 159.724,19.5453 160.391,17.8787 161.5,16.5 Z"/></g>
<g><path style="opacity:0.748" fill="#000" d="M 278.5,12.5 C 283.018,13.0372 287.685,13.0372 292.5,12.5C 292.624,16.7485 290.791,18.0818 287,16.5C 285.739,16.7591 284.739,17.4258 284,18.5C 283.501,22.4862 283.334,26.4862 283.5,30.5C 281.856,30.7135 280.356,30.3802 279,29.5C 278.501,23.8431 278.334,18.1764 278.5,12.5 Z"/></g>
</svg>
